<svg width="1920" height="616" viewBox="0 0 1920 616" fill="none" xmlns="http://www.w3.org/2000/svg">
<path d="M1522.17 348.84H1807C1878.24 348.84 1936 406.596 1936 477.841V594C1936 665.245 1878.24 723 1807 723H84.9999C13.7551 723 -44.0001 665.245 -44.0001 594V129C-44.0001 57.7553 13.7551 0 84.9999 0H688.786C716.472 0 743.424 8.90749 765.657 25.406L860.961 96.1255C883.194 112.624 910.146 121.532 937.833 121.532H1214.5C1253.31 121.532 1290.05 139.002 1314.55 169.1L1422.12 301.272C1446.62 331.37 1483.37 348.84 1522.17 348.84Z" fill="#FBFAFF"/>
</svg>
