<svg width="56" height="56" viewBox="0 0 56 56" fill="none" xmlns="http://www.w3.org/2000/svg">
<g clip-path="url(#clip0_710_9)">
<path fill-rule="evenodd" clip-rule="evenodd" d="M6.09977 12.6606C6.64152 11.3527 7.91774 10.5 9.33335 10.5H32.6666C42.3317 10.5 50.1666 18.335 50.1666 28C50.1666 37.6649 42.3317 45.5 32.6666 45.5H11.6667C9.7337 45.5 8.16668 43.9329 8.16668 42C8.16668 40.0671 9.7337 38.5 11.6667 38.5H32.6666C38.4656 38.5 43.1666 33.799 43.1666 28C43.1666 22.201 38.4656 17.5 32.6666 17.5H17.7831L19.9749 19.6918C21.3417 21.0586 21.3417 23.2747 19.9749 24.6416C18.6081 26.0083 16.392 26.0083 15.0251 24.6416L6.85848 16.4749C5.8575 15.4739 5.55804 13.9685 6.09977 12.6606Z" fill="white"/>
</g>
<defs>
<clipPath id="clip0_710_9">
<rect width="56" height="56" fill="white"/>
</clipPath>
</defs>
</svg>
