<svg width="50" height="50" viewBox="0 0 50 50" fill="none" xmlns="http://www.w3.org/2000/svg">
<path d="M17.3371 30.1942C15.3746 33.3044 14.3934 34.8596 15.0619 36.1317C15.7304 37.4036 17.606 37.5501 21.3571 37.843L22.3278 37.9186C23.3936 38.0019 23.9267 38.0436 24.3925 38.2884C24.8586 38.5334 25.2048 38.9538 25.8971 39.7946L26.5273 40.5603C28.9638 43.5196 30.1819 44.9992 31.5715 44.809C32.9611 44.6186 33.6019 42.8844 34.8832 39.4161L35.2148 38.5188C35.5788 37.5334 35.7609 37.0405 36.1186 36.6828C36.4763 36.3253 36.969 36.1432 37.9546 35.779L38.8519 35.4476C42.3203 34.1661 44.0544 33.5255 44.2446 32.1359C44.435 30.7463 42.9553 29.528 39.9961 27.0917M37.2788 21.9215C36.9859 18.1703 36.8394 16.2946 35.5673 15.6261C34.2955 14.9576 32.7403 15.9388 29.63 17.9014L28.8253 18.4091C27.9415 18.9668 27.4996 19.2456 26.9905 19.3153C26.4815 19.385 25.963 19.2377 24.9259 18.943L23.9819 18.6747C20.3325 17.6378 18.5079 17.1193 17.5315 18.0957C16.5551 19.0721 17.0735 20.8967 18.1105 24.5461" stroke="white" stroke-width="2" stroke-linecap="round"/>
<path d="M28.1251 13.5418L27.0834 12.5002M19.7917 5.2085L23.9584 9.37516" stroke="white" stroke-width="2" stroke-linecap="round"/>
<path d="M13.5416 13.5418L8.33325 8.3335" stroke="white" stroke-width="2" stroke-linecap="round"/>
<path d="M12.5001 24.9998L9.37508 21.8748M4.16675 16.6665L5.20841 17.7082" stroke="white" stroke-width="2" stroke-linecap="round"/>
</svg>
